<mxfile host="Electron" agent="Mozilla/5.0 (Windows NT 10.0; Win64; x64) AppleWebKit/537.36 (KHTML, like Gecko) draw.io/24.7.17 Chrome/128.0.6613.36 Electron/32.0.1 Safari/537.36" version="24.7.17">
  <diagram name="Page-1" id="yodYAiZQVWorqNDnhViv">
    <mxGraphModel dx="1098" dy="988" grid="1" gridSize="10" guides="1" tooltips="1" connect="1" arrows="1" fold="1" page="1" pageScale="1" pageWidth="850" pageHeight="1100" math="0" shadow="0">
      <root>
        <mxCell id="0" />
        <mxCell id="1" parent="0" />
        <mxCell id="wk7TNWYnSmM6sqZQO-Bm-5" value="" style="edgeStyle=orthogonalEdgeStyle;rounded=0;orthogonalLoop=1;jettySize=auto;html=1;" edge="1" parent="1" source="wk7TNWYnSmM6sqZQO-Bm-1" target="wk7TNWYnSmM6sqZQO-Bm-4">
          <mxGeometry relative="1" as="geometry" />
        </mxCell>
        <mxCell id="wk7TNWYnSmM6sqZQO-Bm-1" value="start" style="ellipse;whiteSpace=wrap;html=1;" vertex="1" parent="1">
          <mxGeometry x="365" y="10" width="120" height="80" as="geometry" />
        </mxCell>
        <mxCell id="wk7TNWYnSmM6sqZQO-Bm-7" value="" style="edgeStyle=orthogonalEdgeStyle;rounded=0;orthogonalLoop=1;jettySize=auto;html=1;" edge="1" parent="1" source="wk7TNWYnSmM6sqZQO-Bm-4" target="wk7TNWYnSmM6sqZQO-Bm-6">
          <mxGeometry relative="1" as="geometry" />
        </mxCell>
        <mxCell id="wk7TNWYnSmM6sqZQO-Bm-4" value="Labor = 30" style="rounded=0;whiteSpace=wrap;html=1;" vertex="1" parent="1">
          <mxGeometry x="365" y="110" width="120" height="60" as="geometry" />
        </mxCell>
        <mxCell id="wk7TNWYnSmM6sqZQO-Bm-10" value="" style="edgeStyle=orthogonalEdgeStyle;rounded=0;orthogonalLoop=1;jettySize=auto;html=1;" edge="1" parent="1" source="wk7TNWYnSmM6sqZQO-Bm-6" target="wk7TNWYnSmM6sqZQO-Bm-9">
          <mxGeometry relative="1" as="geometry" />
        </mxCell>
        <mxCell id="wk7TNWYnSmM6sqZQO-Bm-6" value="input HoursToComplete" style="shape=parallelogram;perimeter=parallelogramPerimeter;whiteSpace=wrap;html=1;fixedSize=1;" vertex="1" parent="1">
          <mxGeometry x="365" y="190" width="120" height="60" as="geometry" />
        </mxCell>
        <mxCell id="wk7TNWYnSmM6sqZQO-Bm-11" value="" style="edgeStyle=orthogonalEdgeStyle;rounded=0;orthogonalLoop=1;jettySize=auto;html=1;" edge="1" parent="1" source="wk7TNWYnSmM6sqZQO-Bm-8" target="wk7TNWYnSmM6sqZQO-Bm-9">
          <mxGeometry relative="1" as="geometry" />
        </mxCell>
        <mxCell id="wk7TNWYnSmM6sqZQO-Bm-8" value="input MaterialCost" style="shape=parallelogram;perimeter=parallelogramPerimeter;whiteSpace=wrap;html=1;fixedSize=1;" vertex="1" parent="1">
          <mxGeometry x="365" y="270" width="120" height="60" as="geometry" />
        </mxCell>
        <mxCell id="wk7TNWYnSmM6sqZQO-Bm-13" value="" style="edgeStyle=orthogonalEdgeStyle;rounded=0;orthogonalLoop=1;jettySize=auto;html=1;" edge="1" parent="1" source="wk7TNWYnSmM6sqZQO-Bm-9" target="wk7TNWYnSmM6sqZQO-Bm-12">
          <mxGeometry relative="1" as="geometry" />
        </mxCell>
        <mxCell id="wk7TNWYnSmM6sqZQO-Bm-9" value="MaterialMarkup = MaterialCost * 0.20" style="rounded=0;whiteSpace=wrap;html=1;" vertex="1" parent="1">
          <mxGeometry x="365" y="350" width="120" height="60" as="geometry" />
        </mxCell>
        <mxCell id="wk7TNWYnSmM6sqZQO-Bm-15" value="" style="edgeStyle=orthogonalEdgeStyle;rounded=0;orthogonalLoop=1;jettySize=auto;html=1;" edge="1" parent="1" source="wk7TNWYnSmM6sqZQO-Bm-12" target="wk7TNWYnSmM6sqZQO-Bm-14">
          <mxGeometry relative="1" as="geometry" />
        </mxCell>
        <mxCell id="wk7TNWYnSmM6sqZQO-Bm-12" value="LaborCost = HoursToComplete * Labor" style="whiteSpace=wrap;html=1;rounded=0;" vertex="1" parent="1">
          <mxGeometry x="365" y="430" width="120" height="60" as="geometry" />
        </mxCell>
        <mxCell id="wk7TNWYnSmM6sqZQO-Bm-20" value="" style="edgeStyle=orthogonalEdgeStyle;rounded=0;orthogonalLoop=1;jettySize=auto;html=1;" edge="1" parent="1" source="wk7TNWYnSmM6sqZQO-Bm-14" target="wk7TNWYnSmM6sqZQO-Bm-16">
          <mxGeometry relative="1" as="geometry" />
        </mxCell>
        <mxCell id="wk7TNWYnSmM6sqZQO-Bm-14" value="TotalCost = LaborCost + MaterialCost + MaterialMarkup" style="rounded=0;whiteSpace=wrap;html=1;" vertex="1" parent="1">
          <mxGeometry x="365" y="510" width="120" height="60" as="geometry" />
        </mxCell>
        <mxCell id="wk7TNWYnSmM6sqZQO-Bm-21" value="" style="edgeStyle=orthogonalEdgeStyle;rounded=0;orthogonalLoop=1;jettySize=auto;html=1;" edge="1" parent="1" source="wk7TNWYnSmM6sqZQO-Bm-16" target="wk7TNWYnSmM6sqZQO-Bm-17">
          <mxGeometry relative="1" as="geometry" />
        </mxCell>
        <mxCell id="wk7TNWYnSmM6sqZQO-Bm-16" value="print TotalCost" style="shape=parallelogram;perimeter=parallelogramPerimeter;whiteSpace=wrap;html=1;fixedSize=1;" vertex="1" parent="1">
          <mxGeometry x="365" y="590" width="120" height="60" as="geometry" />
        </mxCell>
        <mxCell id="wk7TNWYnSmM6sqZQO-Bm-23" value="" style="edgeStyle=orthogonalEdgeStyle;rounded=0;orthogonalLoop=1;jettySize=auto;html=1;" edge="1" parent="1" source="wk7TNWYnSmM6sqZQO-Bm-17" target="wk7TNWYnSmM6sqZQO-Bm-22">
          <mxGeometry relative="1" as="geometry" />
        </mxCell>
        <mxCell id="wk7TNWYnSmM6sqZQO-Bm-17" value="print &quot;End of program&quot;" style="shape=parallelogram;perimeter=parallelogramPerimeter;whiteSpace=wrap;html=1;fixedSize=1;" vertex="1" parent="1">
          <mxGeometry x="365" y="670" width="120" height="60" as="geometry" />
        </mxCell>
        <mxCell id="wk7TNWYnSmM6sqZQO-Bm-22" value="stop" style="ellipse;whiteSpace=wrap;html=1;" vertex="1" parent="1">
          <mxGeometry x="365" y="750" width="120" height="80" as="geometry" />
        </mxCell>
      </root>
    </mxGraphModel>
  </diagram>
</mxfile>
